<svg xmlns="http://www.w3.org/2000/svg" width="150" height="150.024" viewBox="0 0 150 150.024">
  <g id="about-circle-text" transform="translate(-584.482 -295.619)">
    <g id="Group_122" data-name="Group 122" transform="translate(584.482 295.619)">
      <path id="Path_178" data-name="Path 178" d="M675.483,309.208l0,.009c-.052,2.882-.408,5.216-1.863,5.39A1.612,1.612,0,0,1,671.578,313a8.062,8.062,0,0,1,.13-1.909c-.78,2.138-2.237,3.942-4.094,4.16-2.313.272-3.41-.877-3.589-2.4a2.622,2.622,0,0,1,.9-2.442,7.127,7.127,0,0,1,2.307-1.351c.629-.273,1.419-.541,2.111-.8,1.215-.424,2.429-.952,2.694-1.651A3.4,3.4,0,0,0,668,304.576c-1.474.368-2.327,1.541-2.781,3.639l-.061.007c.215-3.23,1.443-5.239,3.575-5.769,2.09-.521,3.744.949,4.021,3.3a6.743,6.743,0,0,1-.1,2.086c-.763,3.792.369,5.581,1.64,5.3.867-.19,1-1.945,1.053-3.926v0c.006-.014.022-.056.059-.06A.064.064,0,0,1,675.483,309.208Zm-3.725,1.579c.079-.453.169-.894.25-1.272a8.533,8.533,0,0,0,.24-1.574,3.687,3.687,0,0,0-.153-1.132c-.362.732-1.658,1.27-2.983,1.741-2.178.741-3.486,1.379-3.277,3.162.134,1.131,1.036,1.819,2.7,1.624A3.8,3.8,0,0,0,671.758,310.788Z" transform="translate(-602.59 -297.151)" fill="#e45a2b"/>
      <path id="Path_179" data-name="Path 179" d="M688.03,306.839c-.433,2.847-2.027,5.612-4.519,6.113a3.588,3.588,0,0,1-3.76-1.433l-.084.047-1.608,1.025a14.292,14.292,0,0,1,.717-2.823c.094-.265.19-.527.288-.792.156-.416.32-.834.478-1.257.056-.151.114-.3.17-.455a20.615,20.615,0,0,0,.768-2.509,12.532,12.532,0,0,0,.285-1.925c.009-.092.013-.185.017-.276,0-.045,0-.09,0-.137s0-.068,0-.1a14.417,14.417,0,0,0-1.648-6.695l2.63.116a14.038,14.038,0,0,1-.271,5.886c-.01.053-.023.1-.033.154-.02.107-.044.212-.066.316-.01.039-.019.081-.026.12,1.452-2.294,6.241-3.054,6.857,1.557l0,0c0,.013,0,.026,0,.039A9.914,9.914,0,0,1,688.03,306.839Zm-.188.082c.17-2.58-2.49-4.349-4.606-4.146a3.686,3.686,0,0,0-2.283,1.125c-.237.882-.468,1.627-.621,2.119a10.608,10.608,0,0,0-.615,2.395,3.943,3.943,0,0,0,4.344,2.518A4.936,4.936,0,0,0,687.842,306.921Z" transform="translate(-605.791 -295.619)" fill="#e45a2b"/>
      <path id="Path_180" data-name="Path 180" d="M699.536,312.955l.006-.018c-3.081,4.69-7.942,3.171-8-1.039l0,0c0-.012,0-.026,0-.039a9.885,9.885,0,0,1,.668-2.969c.863-2.748,2.861-5.237,5.4-5.353a3.6,3.6,0,0,1,3.873,3.862A13.3,13.3,0,0,1,699.536,312.955Zm-7.126-4.118-.005.007h0c-.564,2.521,1.8,4.677,3.919,4.8a4.1,4.1,0,0,0,4.264-3.13c.01-.032.018-.062.029-.093a3.936,3.936,0,0,0-3.866-4.964,4.93,4.93,0,0,0-4.346,3.39Z" transform="translate(-608.859 -297.422)" fill="#e45a2b"/>
      <path id="Path_181" data-name="Path 181" d="M713.574,321.272l-2.776-1.093c-.044-.363.534-1.565,1.65-3.453-1.535,1.942-3.279,2.735-5.092,2.277-2.071-.523-2.794-2.554-1.938-4.729a6.9,6.9,0,0,1,1.1-1.838c2.466-2.981,2.235-5.131.982-5.487-.854-.243-1.8,1.241-2.782,2.962v0c-.012.009-.046.039-.081.025a.064.064,0,0,1-.039-.078l0-.008c1.407-2.517,2.667-4.479,4.433-3.787a1.609,1.609,0,0,1,.949,2.3,14.811,14.811,0,0,1-2.267,2.774,8.434,8.434,0,0,0-.955,1.272,3.477,3.477,0,0,0,2.245,5.068c1.5.382,2.867-.255,4.189-2.009a.463.463,0,0,0,.042-.055c.058-.076.119-.151.181-.226.005-.009.016-.019.022-.029,2.43-2.956,2.469-5.336,1.416-6.608l2.966,1.167c-.3,1.331-2.519,3.361-3.211,4.177a8.217,8.217,0,0,0-.951,1.268C712.4,317.406,713.08,319.348,713.574,321.272Z" transform="translate(-611.833 -297.966)" fill="#e45a2b"/>
      <path id="Path_182" data-name="Path 182" d="M722,317.762c-2.683,2.469-2.821,4.563-1.672,5.1.806.374,1.967-.945,3.21-2.491v0c.014-.008.053-.031.084-.012a.066.066,0,0,1,.027.084l0,.006c-1.783,2.266-3.334,4.007-4.97,3.047a1.608,1.608,0,0,1-.579-2.418,4.685,4.685,0,0,1,.989-1.033h0l.011-.01.139-.114c1.6-1.316,2.99-2.625,2.99-2.625a12.364,12.364,0,0,0,2.881-4.358l-1.5-.881.084-.144,1.472.866a16.093,16.093,0,0,0,.9-4.98l2.269,1.335a12.011,12.011,0,0,1-2.278,4.172l2.235,1.315-.084.144-2.254-1.326a43.794,43.794,0,0,1-3.714,4.107C722.156,317.615,722.076,317.689,722,317.762Z" transform="translate(-614.832 -298.391)" fill="#e45a2b"/>
      <path id="Path_183" data-name="Path 183" d="M739.051,341.295l-2.077-2.141c.11-.348,1.132-1.206,2.927-2.464-2.2,1.135-4.115,1.138-5.577-.026-1.67-1.331-1.492-3.479.185-5.107a6.9,6.9,0,0,1,1.761-1.22c3.475-1.7,4.151-3.752,3.159-4.593-.678-.573-2.148.39-3.756,1.551l0,0c-.015,0-.058.015-.083-.011a.064.064,0,0,1,0-.088l.005-.005c2.32-1.711,4.277-2.979,5.6-1.62a1.609,1.609,0,0,1-.083,2.485,14.86,14.86,0,0,1-3.21,1.591,8.454,8.454,0,0,0-1.394.765,3.476,3.476,0,0,0-.046,5.541c1.211.968,2.716.951,4.644-.1a.65.65,0,0,0,.061-.033c.084-.045.171-.089.258-.132.008-.005.022-.011.032-.016,3.433-1.69,4.449-3.842,4.014-5.435l2.22,2.287c-.824,1.087-3.681,2.021-4.648,2.479a8.216,8.216,0,0,0-1.388.763C739.576,337.289,739.395,339.339,739.051,341.295Z" transform="translate(-618.338 -302.309)" fill="#e45a2b"/>
      <path id="Path_184" data-name="Path 184" d="M751.247,346.9c2.331-1.146,1.219-4.21-.161-5.8a4.231,4.231,0,0,0-.531-.512,2.363,2.363,0,0,0-1.548-.5c-3.344.154,1.759,7.539-1.184,9.161-2.368,1.25-4.251-.48-4.927-1.261a4.022,4.022,0,0,1,.405-5.981,7.627,7.627,0,0,1,1.256-.73s.086-.051.119,0-.062.087-.062.087c-2.254,1.147-.911,4.682.572,6.39a4.331,4.331,0,0,0,.523.505,2.135,2.135,0,0,0,1.756.395c3.408-1.032-3.152-9.83,2.773-9.4a4.914,4.914,0,0,1,3.138,1.612,3.524,3.524,0,0,1-.789,5.479,5.679,5.679,0,0,1-1.276.65Z" transform="translate(-620.297 -305.552)" fill="#e45a2b"/>
      <path id="Path_185" data-name="Path 185" d="M758.013,359.286l.2-.08,1.766,4.481-.2.08Z" transform="translate(-623.998 -310.099)" fill="#e45a2b"/>
      <path id="Path_186" data-name="Path 186" d="M761.268,385.594h-.008c-2.883-.012-5.223-.336-5.417-1.79a1.612,1.612,0,0,1,1.579-2.064,8.077,8.077,0,0,1,1.911.1c-2.148-.751-3.973-2.182-4.217-4.038-.3-2.31.831-3.423,2.352-3.623a2.624,2.624,0,0,1,2.454.863,7.138,7.138,0,0,1,1.383,2.288c.281.626.561,1.413.828,2.1.441,1.209.985,2.416,1.688,2.673a3.4,3.4,0,0,0,1.977-4.061c-.388-1.469-1.572-2.305-3.678-2.732l-.008-.059c3.235.171,5.261,1.371,5.82,3.5.55,2.084-.9,3.759-3.25,4.068a6.777,6.777,0,0,1-2.088-.069c-3.8-.711-5.578.445-5.283,1.714.2.865,1.958.969,3.942,1h0c.014.006.056.022.06.058A.063.063,0,0,1,761.268,385.594Zm-1.631-3.7c.453.073.9.157,1.276.232a8.544,8.544,0,0,0,1.578.219,3.683,3.683,0,0,0,1.13-.168c-.737-.352-1.291-1.64-1.782-2.959-.771-2.169-1.428-3.468-3.207-3.234-1.13.148-1.8,1.06-1.587,2.718A3.8,3.8,0,0,0,759.637,381.89Z" transform="translate(-623.327 -313.502)" fill="#e45a2b"/>
      <path id="Path_187" data-name="Path 187" d="M762.494,398.144c-2.851-.395-5.638-1.952-6.173-4.435a3.586,3.586,0,0,1,1.38-3.779l-.048-.084-1.047-1.593a14.251,14.251,0,0,1,2.833.679c.266.09.53.182.8.277.418.151.838.308,1.263.46l.457.164a20.6,20.6,0,0,0,2.518.732,12.471,12.471,0,0,0,1.929.259c.092.008.185.012.277.015l.137,0c.034,0,.069,0,.1,0a14.4,14.4,0,0,0,6.671-1.739l-.08,2.632a14.048,14.048,0,0,1-5.889-.191c-.052-.009-.1-.022-.154-.031-.107-.019-.212-.041-.317-.062-.039-.01-.081-.019-.12-.025,2.314,1.42,3.139,6.2-1.464,6.878l.005,0c-.013,0-.026,0-.04,0A9.9,9.9,0,0,1,762.494,398.144Zm-.084-.188c2.583.137,4.315-2.548,4.084-4.661a3.689,3.689,0,0,0-1.158-2.267c-.884-.224-1.633-.445-2.127-.592a10.662,10.662,0,0,0-2.4-.582,3.944,3.944,0,0,0-2.459,4.378A4.932,4.932,0,0,0,762.409,397.956Z" transform="translate(-623.59 -316.713)" fill="#e45a2b"/>
      <path id="Path_188" data-name="Path 188" d="M758.043,409.7l.018.005c-4.732-3.017-3.278-7.9.931-8.018l0,0,.039,0a9.869,9.869,0,0,1,2.977.627c2.759.826,5.276,2.79,5.428,5.326a3.6,3.6,0,0,1-3.81,3.926A13.3,13.3,0,0,1,758.043,409.7Zm4.022-7.182-.007-.005h0v0c-2.53-.53-4.654,1.86-4.745,3.985a4.1,4.1,0,0,0,3.188,4.221c.032.009.062.017.093.027a3.936,3.936,0,0,0,4.913-3.933,4.933,4.933,0,0,0-3.449-4.3Z" transform="translate(-623.338 -319.771)" fill="#e45a2b"/>
      <path id="Path_189" data-name="Path 189" d="M749.033,423.851l1.054-2.791c.363-.049,1.574.513,3.476,1.6-1.962-1.508-2.779-3.241-2.347-5.061.495-2.078,2.516-2.83,4.7-2a6.905,6.905,0,0,1,1.854,1.076c3.015,2.426,5.161,2.165,5.5.907.231-.858-1.266-1.779-3-2.741l0,0c-.009-.012-.039-.046-.025-.08a.063.063,0,0,1,.077-.041l.008,0c2.535,1.372,4.516,2.606,3.848,4.381a1.608,1.608,0,0,1-2.285.981,14.818,14.818,0,0,1-2.8-2.23,8.493,8.493,0,0,0-1.285-.937,3.478,3.478,0,0,0-5.038,2.315c-.361,1.508.294,2.864,2.067,4.162a.537.537,0,0,0,.055.041c.077.057.154.117.229.177a.256.256,0,0,1,.028.022c2.99,2.389,5.37,2.395,6.627,1.324l-1.126,2.982c-1.334-.284-3.395-2.473-4.22-3.155a8.24,8.24,0,0,0-1.281-.932C752.883,422.623,750.951,423.331,749.033,423.851Z" transform="translate(-621.953 -322.739)" fill="#e45a2b"/>
      <path id="Path_190" data-name="Path 190" d="M752.451,432.25c-2.507-2.648-4.6-2.759-5.12-1.6-.362.811.972,1.954,2.535,3.176h0c.008.014.032.052.013.084a.064.064,0,0,1-.083.029l-.007,0c-2.29-1.752-4.051-3.278-3.115-4.927a1.608,1.608,0,0,1,2.41-.612,4.692,4.692,0,0,1,1.046.974l0,0,.009.012c.039.045.078.091.117.137,1.338,1.581,2.666,2.955,2.666,2.955a12.36,12.36,0,0,0,4.4,2.82l.86-1.509.145.083-.846,1.483a16.084,16.084,0,0,0,4.992.835l-1.3,2.287a11.986,11.986,0,0,1-4.2-2.22l-1.284,2.253-.144-.083,1.294-2.272a43.677,43.677,0,0,1-4.156-3.658C752.6,432.406,752.524,432.327,752.451,432.25Z" transform="translate(-621.358 -325.781)" fill="#e45a2b"/>
      <path id="Path_191" data-name="Path 191" d="M729.06,449.607l2.113-2.106c.35.105,1.22,1.117,2.5,2.9-1.165-2.185-1.193-4.1-.046-5.578,1.308-1.689,3.459-1.538,5.109.118a6.92,6.92,0,0,1,1.243,1.745c1.745,3.454,3.807,4.1,4.634,3.1.565-.686-.418-2.143-1.6-3.736l0,0c0-.015-.017-.058.009-.084a.064.064,0,0,1,.088-.005l.005.005c1.743,2.3,3.036,4.238,1.694,5.579a1.608,1.608,0,0,1-2.487-.05,14.861,14.861,0,0,1-1.633-3.189,8.371,8.371,0,0,0-.783-1.384,3.477,3.477,0,0,0-5.543.026c-.951,1.224-.915,2.73.163,4.645a.5.5,0,0,0,.033.059c.046.083.091.169.135.256l.017.032c1.735,3.411,3.9,4.4,5.488,3.943l-2.257,2.25c-1.1-.809-2.07-3.654-2.541-4.615a8.257,8.257,0,0,0-.782-1.379C733.072,450.078,731.02,449.925,729.06,449.607Z" transform="translate(-617.405 -329.321)" fill="#e45a2b"/>
      <path id="Path_192" data-name="Path 192" d="M725.339,461.859c1.176,2.315,4.224,1.162,5.8-.239a4.428,4.428,0,0,0,.505-.538,2.37,2.37,0,0,0,.481-1.555c-.2-3.342-7.515,1.86-9.175-1.06-1.283-2.351.423-4.256,1.194-4.943a4.021,4.021,0,0,1,5.986.324,7.714,7.714,0,0,1,.747,1.246s.051.087.005.12-.088-.062-.088-.062c-1.177-2.237-4.692-.847-6.381.659a4.2,4.2,0,0,0-.5.53,2.128,2.128,0,0,0-.371,1.761c1.077,3.393,9.786-3.283,9.431,2.647a4.908,4.908,0,0,1-1.569,3.158,3.524,3.524,0,0,1-5.489-.714,5.724,5.724,0,0,1-.667-1.267Z" transform="translate(-615.907 -331.309)" fill="#e45a2b"/>
      <path id="Path_193" data-name="Path 193" d="M714.791,468.767l.083.2-4.457,1.828-.083-.2Z" transform="translate(-613.141 -335.048)" fill="#e45a2b"/>
      <path id="Path_194" data-name="Path 194" d="M686.491,472.4l0-.008c-.026-2.884.266-5.228,1.718-5.44a1.611,1.611,0,0,1,2.085,1.551,8.1,8.1,0,0,1-.079,1.912c.722-2.158,2.129-4,3.981-4.271,2.305-.334,3.434.786,3.653,2.3a2.621,2.621,0,0,1-.829,2.466,7.129,7.129,0,0,1-2.269,1.413c-.623.29-1.406.58-2.09.856-1.2.458-2.4,1.019-2.65,1.724a3.4,3.4,0,0,0,4.087,1.922c1.463-.406,2.284-1.6,2.682-3.713l.06-.009c-.128,3.236-1.3,5.278-3.418,5.866-2.077.578-3.77-.848-4.111-3.2a6.752,6.752,0,0,1,.041-2.088c.661-3.813-.52-5.571-1.783-5.261-.862.214-.944,1.972-.947,3.955v0c-.006.014-.021.056-.058.061A.063.063,0,0,1,686.491,472.4Zm3.682-1.68c-.066.455-.144.9-.215,1.278a8.458,8.458,0,0,0-.2,1.581,3.681,3.681,0,0,0,.183,1.128c.342-.741,1.623-1.314,2.935-1.821,2.158-.8,3.448-1.474,3.191-3.251-.164-1.128-1.085-1.79-2.74-1.55A3.8,3.8,0,0,0,690.173,470.717Z" transform="translate(-607.71 -334.436)" fill="#e45a2b"/>
      <path id="Path_195" data-name="Path 195" d="M674.381,473.8c.355-2.857,1.874-5.666,4.35-6.235a3.587,3.587,0,0,1,3.8,1.328l.083-.049,1.579-1.069a14.25,14.25,0,0,1-.641,2.842c-.086.267-.175.532-.266.8-.144.42-.3.842-.444,1.269-.052.153-.1.305-.157.46a20.845,20.845,0,0,0-.7,2.53,12.541,12.541,0,0,0-.233,1.932c-.006.093-.008.185-.009.277,0,.045,0,.09,0,.137s0,.069,0,.1a14.42,14.42,0,0,0,1.83,6.648l-2.633-.043a14.062,14.062,0,0,1,.11-5.893c.009-.052.021-.1.029-.154.017-.107.038-.213.058-.318.008-.039.017-.081.023-.121-1.389,2.333-6.156,3.224-6.9-1.369l0,.005c0-.012,0-.026,0-.04A9.9,9.9,0,0,1,674.381,473.8Zm.186-.087c-.1,2.583,2.608,4.28,4.718,4.019a3.687,3.687,0,0,0,2.251-1.187c.212-.889.422-1.64.563-2.137a10.641,10.641,0,0,0,.549-2.41,3.946,3.946,0,0,0-4.412-2.4A4.936,4.936,0,0,0,674.567,473.713Z" transform="translate(-604.907 -334.749)" fill="#e45a2b"/>
      <path id="Path_196" data-name="Path 196" d="M662.81,469.493l-.006.017c2.954-4.77,7.855-3.383,8.03.825l0,0,0,.039a9.882,9.882,0,0,1-.588,2.986c-.789,2.77-2.719,5.313-5.252,5.5a3.6,3.6,0,0,1-3.976-3.756A13.283,13.283,0,0,1,662.81,469.493Zm7.235,3.925,0-.006h0c.5-2.537-1.922-4.628-4.048-4.691a4.1,4.1,0,0,0-4.178,3.244c-.009.032-.016.062-.026.093a3.936,3.936,0,0,0,4,4.859,4.931,4.931,0,0,0,4.253-3.505Z" transform="translate(-601.91 -334.533)" fill="#e45a2b"/>
      <path id="Path_197" data-name="Path 197" d="M647.571,460.693l2.806,1.019c.053.361-.493,1.579-1.558,3.5,1.483-1.982,3.206-2.822,5.03-2.413,2.085.468,2.862,2.479,2.064,4.677a6.913,6.913,0,0,1-1.05,1.867c-2.386,3.047-2.1,5.19-.836,5.513.86.22,1.762-1.29,2.7-3.036v0c.012-.009.046-.039.08-.027a.065.065,0,0,1,.043.077l0,.008c-1.339,2.554-2.546,4.55-4.33,3.9a1.609,1.609,0,0,1-1.011-2.273,14.835,14.835,0,0,1,2.193-2.834,8.489,8.489,0,0,0,.92-1.3,3.477,3.477,0,0,0-2.379-5.007c-1.513-.341-2.86.331-4.135,2.12a.534.534,0,0,0-.039.056c-.057.077-.116.154-.175.231l-.022.029c-2.351,3.02-2.325,5.4-1.237,6.643l-3-1.087c.266-1.338,2.428-3.428,3.1-4.262a8.208,8.208,0,0,0,.916-1.293C648.851,464.526,648.117,462.6,647.571,460.693Z" transform="translate(-597.953 -333.209)" fill="#e45a2b"/>
      <path id="Path_198" data-name="Path 198" d="M640.017,464.2c2.616-2.542,2.7-4.639,1.535-5.141-.816-.351-1.942,1-3.143,2.577v0a.086.086,0,0,1-.083.015.066.066,0,0,1-.03-.083l0-.007c1.722-2.313,3.226-4.1,4.888-3.181a1.61,1.61,0,0,1,.644,2.4,4.671,4.671,0,0,1-.96,1.059h0l-.012.009-.136.119c-1.563,1.358-2.919,2.706-2.919,2.706a12.361,12.361,0,0,0-2.763,4.435l1.521.841-.08.145-1.5-.826a16.1,16.1,0,0,0-.768,5L633.913,473a12.009,12.009,0,0,1,2.166-4.233l-2.271-1.255.081-.146,2.289,1.266a43.692,43.692,0,0,1,3.6-4.207C639.864,464.347,639.942,464.271,640.017,464.2Z" transform="translate(-595.714 -332.626)" fill="#e45a2b"/>
      <path id="Path_199" data-name="Path 199" d="M621.166,441.065l2.135,2.085c-.1.351-1.1,1.236-2.861,2.543,2.169-1.195,4.084-1.25,5.577-.124,1.706,1.286,1.585,3.44-.049,5.113a6.914,6.914,0,0,1-1.728,1.267c-3.43,1.791-4.051,3.862-3.036,4.676.693.556,2.136-.447,3.713-1.651l0,0c.015,0,.058-.017.084.009a.063.063,0,0,1,.006.087l-.005.006c-2.274,1.773-4.2,3.093-5.556,1.769a1.609,1.609,0,0,1,.017-2.488,14.854,14.854,0,0,1,3.167-1.676,8.338,8.338,0,0,0,1.373-.8,3.476,3.476,0,0,0-.1-5.541c-1.237-.935-2.742-.878-4.641.225a.492.492,0,0,0-.059.035c-.083.047-.169.093-.255.138l-.031.018c-3.388,1.781-4.347,3.961-3.869,5.541l-2.281-2.227c.795-1.109,3.626-2.12,4.581-2.6a8.21,8.21,0,0,0,1.368-.8C620.75,445.085,620.875,443.03,621.166,441.065Z" transform="translate(-590.923 -328.739)" fill="#e45a2b"/>
      <path id="Path_200" data-name="Path 200" d="M609.429,437.5c-2.3,1.208-1.106,4.24.317,5.792a4.359,4.359,0,0,0,.545.5,2.366,2.366,0,0,0,1.561.459c3.339-.244-1.961-7.49.938-9.189,2.333-1.314,4.262.367,4.959,1.128a4.022,4.022,0,0,1-.244,5.991,7.7,7.7,0,0,1-1.237.763s-.085.053-.118.007.059-.088.059-.088c2.221-1.207.785-4.7-.744-6.372a4.215,4.215,0,0,0-.536-.491,2.132,2.132,0,0,0-1.766-.347c-3.379,1.122,3.414,9.742-2.521,9.466a4.906,4.906,0,0,1-3.179-1.526,3.525,3.525,0,0,1,.641-5.5,5.686,5.686,0,0,1,1.258-.683Z" transform="translate(-589.478 -327.262)" fill="#e45a2b"/>
      <path id="Path_201" data-name="Path 201" d="M605.47,427.057l-.2.086-1.889-4.431.2-.086Z" transform="translate(-588.785 -324.541)" fill="#e45a2b"/>
      <path id="Path_202" data-name="Path 202" d="M598.236,398.83h.008c2.882-.066,5.229.194,5.462,1.642a1.612,1.612,0,0,1-1.521,2.107,8.105,8.105,0,0,1-1.913-.053c2.167.693,4.031,2.074,4.324,3.921.366,2.3-.737,3.444-2.251,3.685a2.626,2.626,0,0,1-2.477-.795,7.134,7.134,0,0,1-1.443-2.25c-.3-.618-.6-1.4-.885-2.077-.474-1.2-1.051-2.388-1.761-2.625a3.4,3.4,0,0,0-1.865,4.112c.427,1.457,1.635,2.262,3.75,2.63l.009.059c-3.237-.083-5.295-1.228-5.911-3.335-.606-2.067.8-3.782,3.138-4.154a6.748,6.748,0,0,1,2.088.012c3.82.608,5.562-.6,5.234-1.857-.225-.859-1.983-.915-3.967-.89h0c-.014-.005-.056-.02-.063-.056A.066.066,0,0,1,598.236,398.83Zm1.73,3.658c-.455-.06-.9-.132-1.28-.2a8.539,8.539,0,0,0-1.583-.175,3.667,3.667,0,0,0-1.124.2c.745.332,1.335,1.6,1.861,2.908.829,2.147,1.521,3.427,3.294,3.146,1.124-.179,1.774-1.109,1.511-2.761A3.8,3.8,0,0,0,599.966,402.488Z" transform="translate(-586.107 -319.119)" fill="#e45a2b"/>
      <path id="Path_203" data-name="Path 203" d="M595.456,386.69c2.857.356,5.666,1.874,6.235,4.35a3.589,3.589,0,0,1-1.329,3.8l.049.083,1.07,1.579a14.237,14.237,0,0,1-2.842-.64c-.268-.086-.533-.175-.8-.266-.419-.144-.841-.3-1.27-.443l-.459-.158a20.53,20.53,0,0,0-2.529-.7,12.478,12.478,0,0,0-1.933-.232c-.092-.007-.185-.008-.276-.01-.046,0-.09,0-.137,0s-.069,0-.1,0a14.426,14.426,0,0,0-6.648,1.83l.044-2.633a14.059,14.059,0,0,1,5.892.11c.053.009.1.02.155.029.108.018.213.039.318.058.04.009.082.018.121.023-2.333-1.389-3.224-6.155,1.369-6.9l-.005,0,.039,0A9.931,9.931,0,0,1,595.456,386.69Zm.087.186c-2.584-.1-4.28,2.608-4.019,4.718a3.685,3.685,0,0,0,1.187,2.252c.889.212,1.64.422,2.136.562a10.616,10.616,0,0,0,2.41.549,3.944,3.944,0,0,0,2.4-4.412A4.934,4.934,0,0,0,595.543,386.877Z" transform="translate(-584.482 -316.311)" fill="#e45a2b"/>
      <path id="Path_204" data-name="Path 204" d="M601,375.118l-.018-.006c4.812,2.888,3.492,7.808-.712,8.04l0,0-.039,0a9.862,9.862,0,0,1-2.994-.547c-2.78-.75-5.35-2.644-5.569-5.175a3.6,3.6,0,0,1,3.7-4.027A13.3,13.3,0,0,1,601,375.118Zm-3.824,7.289.007,0h0c2.543.46,4.6-1.986,4.634-4.112a4.1,4.1,0,0,0-3.3-4.132c-.032-.01-.062-.016-.093-.025a3.937,3.937,0,0,0-4.8,4.066,4.934,4.934,0,0,0,3.565,4.2Z" transform="translate(-586.115 -313.332)" fill="#e45a2b"/>
      <path id="Path_205" data-name="Path 205" d="M608.769,359.778l-.979,2.819c-.361.058-1.586-.47-3.518-1.508,2,1.455,2.867,3.166,2.483,5-.438,2.091-2.438,2.9-4.647,2.129a6.929,6.929,0,0,1-1.881-1.024c-3.079-2.343-5.218-2.024-5.523-.759-.208.864,1.314,1.744,3.074,2.659h0c.01.012.04.045.029.08a.065.065,0,0,1-.077.043l-.007,0c-2.572-1.3-4.584-2.482-3.965-4.275a1.609,1.609,0,0,1,2.258-1.042,14.823,14.823,0,0,1,2.864,2.152,8.441,8.441,0,0,0,1.31.9,3.477,3.477,0,0,0,4.972-2.45c.32-1.516-.371-2.854-2.178-4.1a.457.457,0,0,0-.056-.039c-.078-.056-.156-.114-.233-.171l-.029-.022c-3.052-2.308-5.433-2.249-6.659-1.145l1.045-3.011c1.341.248,3.461,2.38,4.3,3.039a8.232,8.232,0,0,0,1.306.9C604.955,361.11,606.867,360.35,608.769,359.778Z" transform="translate(-586.569 -309.37)" fill="#e45a2b"/>
      <path id="Path_206" data-name="Path 206" d="M604.868,352.248c2.576,2.582,4.675,2.637,5.162,1.465.341-.82-1.024-1.928-2.62-3.108h0c-.008-.013-.032-.051-.015-.083a.064.064,0,0,1,.083-.03l.007,0c2.336,1.691,4.139,3.169,3.247,4.844a1.609,1.609,0,0,1-2.394.677,4.683,4.683,0,0,1-1.072-.946v0l-.011-.012-.12-.134c-1.38-1.545-2.745-2.882-2.745-2.882a12.354,12.354,0,0,0-4.472-2.7l-.82,1.531-.147-.079.806-1.506a16.094,16.094,0,0,0-5.014-.7l1.243-2.322a12.006,12.006,0,0,1,4.261,2.108l1.224-2.287.147.079-1.234,2.306a43.824,43.824,0,0,1,4.255,3.547Q604.754,352.136,604.868,352.248Z" transform="translate(-586.818 -307.111)" fill="#e45a2b"/>
      <path id="Path_207" data-name="Path 207" d="M627.717,333.081l-2.057,2.162c-.352-.1-1.25-1.084-2.579-2.827,1.222,2.153,1.3,4.068.2,5.575-1.263,1.722-3.417,1.63-5.112.019a6.945,6.945,0,0,1-1.29-1.711c-1.836-3.407-3.915-4-4.716-2.974-.546.7.475,2.131,1.7,3.692l0,0a.086.086,0,0,1-.007.084.064.064,0,0,1-.088.007l-.005-.005c-1.8-2.25-3.148-4.155-1.843-5.532a1.609,1.609,0,0,1,2.487-.015,14.848,14.848,0,0,1,1.718,3.145,8.4,8.4,0,0,0,.819,1.362,3.477,3.477,0,0,0,5.54-.175c.918-1.249.841-2.753-.286-4.638a.409.409,0,0,0-.036-.059c-.049-.083-.1-.168-.142-.252-.005-.01-.012-.022-.018-.032-1.826-3.363-4.017-4.294-5.591-3.8l2.2-2.309c1.119.78,2.168,3.6,2.664,4.546a8.243,8.243,0,0,0,.818,1.357C623.693,332.718,625.748,332.816,627.717,333.081Z" transform="translate(-590.611 -302.265)" fill="#e45a2b"/>
      <path id="Path_208" data-name="Path 208" d="M632.8,321.288c-1.239-2.282-4.254-1.047-5.787.4a4.358,4.358,0,0,0-.49.551,2.367,2.367,0,0,0-.439,1.568c.29,3.334,7.461-2.063,9.2.811,1.345,2.315-.308,4.266-1.06,4.974a4.021,4.021,0,0,1-5.992-.163,7.574,7.574,0,0,1-.78-1.226s-.054-.084-.009-.118.089.059.089.059c1.237,2.2,4.714.721,6.361-.83a4.253,4.253,0,0,0,.483-.544,2.133,2.133,0,0,0,.324-1.77c-1.168-3.363-9.694,3.546-9.5-2.391a4.915,4.915,0,0,1,1.483-3.2,3.525,3.525,0,0,1,5.506.566,5.728,5.728,0,0,1,.7,1.249Z" transform="translate(-593.754 -300.791)" fill="#e45a2b"/>
      <path id="Path_209" data-name="Path 209" d="M644.979,317.15l-.088-.2L649.3,315l.088.2Z" transform="translate(-598.238 -300.033)" fill="#e45a2b"/>
    </g>
  </g>
</svg>
